# xmcd
#
# Track frame offsets:
#	150
#	7305
#	19635
#	31804
#	50989
#	62227
#	72614
#	81080
#	93686
#	116169
#	129081
#	140431
#	152549
#	166112
#	181172
#	194420
#	210877
#	223046
#
# Disc length: 3201
#
# Revision: 2
# Processed by: cddbd v1.5.1PL0 Copyright (c) Steve Scherf et al.
# Submitted via: FreeRIP 2.30 
# Normalized: r1:TRMNUM
#
DISCID=fe0c7f12
DTITLE=Various Artist - Bluegrass (A Music de l'Ouest Americain)
DYEAR=1993
DGENRE=Bluegrass
TTITLE0=Duelling Banjos
TTITLE1=Black Mountain Rag
TTITLE2=Shady Grove
TTITLE3=Colombus Georgia
TTITLE4=Blue Moon Of Kentucky
TTITLE5=Earl's Breakdown
TTITLE6=Old Rebel
TTITLE7=Orange Blossom Special
TTITLE8=Reuben's Train
TTITLE9=Grandfathers Clock
TTITLE10=Blackbird
TTITLE11=Mule Skinner Blues
TTITLE12=Battle Of New Orleans
TTITLE13=The Banks Of The Ohio
TTITLE14=My Dixie Darling
TTITLE15=Old Groundhog
TTITLE16=Some Of Shelley's Blues
TTITLE17=Will The Circle Be Unbroken
EXTD=
EXTT0=
EXTT1=
EXTT2=
EXTT3=
EXTT4=
EXTT5=
EXTT6=
EXTT7=
EXTT8=
EXTT9=
EXTT10=
EXTT11=
EXTT12=
EXTT13=
EXTT14=
EXTT15=
EXTT16=
EXTT17=
PLAYORDER=
